<svg width="35" height="20" viewBox="0 0 35 20" fill="none" xmlns="http://www.w3.org/2000/svg">
<path d="M28.3349 6.40439H26.1314L26.7953 0.841869C26.7966 0.831792 26.7968 0.821866 26.7968 0.811939C26.7968 0.811091 26.797 0.810292 26.797 0.809444C26.797 0.809295 26.797 0.809195 26.797 0.809045C26.797 0.657647 26.6718 0.524207 26.4879 0.466192C26.4863 0.465693 26.4848 0.465095 26.4832 0.464596C26.4718 0.461104 26.46 0.458111 26.4481 0.455218C26.4436 0.45417 26.4394 0.452873 26.4349 0.451875C26.4252 0.44973 26.4153 0.448034 26.4053 0.446288C26.3984 0.445091 26.3917 0.443645 26.3846 0.442647C26.376 0.4414 26.3669 0.440602 26.358 0.439654C26.3497 0.438756 26.3415 0.437708 26.3331 0.43716C26.3317 0.43706 26.3304 0.43686 26.3289 0.436761C26.3199 0.436162 26.311 0.436262 26.3021 0.436012C26.296 0.435863 26.2902 0.435364 26.2841 0.435364H26.2777C26.2772 0.435364 26.2766 0.435364 26.2761 0.435364H15.7918C15.5088 0.435364 15.2791 0.602974 15.2791 0.809494C15.2791 1.01552 15.5088 1.18362 15.7918 1.18362H25.7253L24.705 9.7325C24.7048 9.73315 24.7048 9.7338 24.7047 9.73445L24.4473 11.8915H6.63212L6.9301 9.6468H10.3222C10.6054 9.6468 10.8349 9.47929 10.8349 9.27267C10.8349 9.06605 10.6054 8.89854 10.3222 8.89854H7.02949L7.65867 4.15981H13.0574C13.3406 4.15981 13.5701 3.9923 13.5701 3.78568C13.5701 3.57906 13.3406 3.41155 13.0574 3.41155H7.75807L8.05393 1.18362H13.741C14.0233 1.18362 14.2537 1.01552 14.2537 0.809494C14.2537 0.602974 14.0233 0.435364 13.741 0.435364H7.5886C7.58833 0.435364 7.58813 0.435414 7.58785 0.435414C7.34702 0.435364 7.13811 0.559077 7.0876 0.730578C7.08725 0.731825 7.08664 0.733022 7.0863 0.734269C7.0837 0.743598 7.08199 0.753125 7.08028 0.762703C7.0798 0.765746 7.07891 0.768639 7.0785 0.771682C7.07844 0.772281 7.07823 0.772829 7.07816 0.773428L6.72789 3.41155H0.512697C0.229483 3.41155 0 3.57906 0 3.78568C0 3.9923 0.229483 4.15981 0.512697 4.15981H6.62849L5.99931 8.89854H4.17007C3.88686 8.89854 3.65738 9.06605 3.65738 9.27267C3.65738 9.47929 3.88686 9.6468 4.17007 9.6468H5.89998L5.55737 12.2269C5.5573 12.2273 5.5573 12.2277 5.55723 12.228L5.02751 16.2177C5.02744 16.2181 5.02737 16.2186 5.0273 16.219L5.0271 16.2205C5.02642 16.2257 5.02648 16.2308 5.02607 16.2359C5.0256 16.2428 5.02464 16.2496 5.02464 16.2565C5.02464 16.2568 5.02471 16.2571 5.02471 16.2575C5.02471 16.2671 5.02566 16.2766 5.02662 16.2861C5.02703 16.2891 5.02689 16.2922 5.02737 16.2952C5.02874 16.3049 5.031 16.3144 5.03339 16.3239C5.03407 16.3267 5.03441 16.3295 5.03517 16.3323C5.03715 16.3394 5.03995 16.3464 5.04255 16.3534C5.04433 16.3584 5.04576 16.3634 5.04781 16.3682C5.04843 16.3696 5.04925 16.3709 5.0498 16.3723C5.07461 16.4279 5.11672 16.4779 5.17168 16.5187C5.17271 16.5195 5.17353 16.5203 5.17455 16.521C5.18002 16.525 5.18597 16.5286 5.19171 16.5324C5.22705 16.556 5.26697 16.5761 5.31066 16.5918C5.31975 16.5951 5.3287 16.5985 5.338 16.6014C5.3408 16.6023 5.34381 16.6029 5.34668 16.6037C5.35953 16.6074 5.37245 16.611 5.38578 16.6141C5.38701 16.6143 5.38818 16.6145 5.38941 16.6148C5.40458 16.6181 5.41989 16.6209 5.43555 16.6233C5.4376 16.6236 5.43972 16.6237 5.4417 16.624C5.4566 16.626 5.47157 16.6278 5.48682 16.6289C5.48716 16.6289 5.48743 16.6289 5.48778 16.629C5.50459 16.6302 5.52127 16.6308 5.53781 16.6308C5.53802 16.6308 5.53829 16.6307 5.53857 16.6307H7.82096C8.073 18.0251 9.71124 19.1051 11.6899 19.1051C13.6684 19.1051 15.3067 18.0251 15.5587 16.6307H23.7823C24.0344 18.0251 25.6726 19.1051 27.6512 19.1051C29.6297 19.1051 31.2681 18.0251 31.5202 16.6307H33.8032C33.8035 16.6307 33.8039 16.6308 33.8043 16.6308C33.8213 16.6308 33.8382 16.63 33.8548 16.6288C33.8578 16.6286 33.8607 16.6282 33.8637 16.6279C33.8771 16.6268 33.8903 16.6254 33.9033 16.6235C33.9089 16.6227 33.9143 16.6216 33.9198 16.6207C33.9299 16.619 33.94 16.6172 33.9499 16.6151C33.9566 16.6136 33.9631 16.6119 33.9696 16.6103C33.978 16.6082 33.9864 16.606 33.9947 16.6035C34.0018 16.6015 34.0086 16.5992 34.0155 16.597C34.023 16.5945 34.0305 16.5919 34.0378 16.5891C34.0448 16.5865 34.0515 16.5838 34.0582 16.581C34.0653 16.578 34.0722 16.575 34.0791 16.5718C34.0856 16.5688 34.092 16.5657 34.0981 16.5625C34.1051 16.559 34.1117 16.5552 34.1185 16.5515C34.1241 16.5482 34.1298 16.545 34.1353 16.5416C34.1423 16.5373 34.1489 16.5327 34.1556 16.5281C34.1603 16.5249 34.1651 16.5217 34.1696 16.5183C34.1767 16.513 34.1835 16.5074 34.1903 16.5018C34.1939 16.4987 34.1977 16.4958 34.2011 16.4927C34.2087 16.4859 34.2155 16.4789 34.2223 16.4719C34.2247 16.4694 34.2273 16.4672 34.2295 16.4647C34.2379 16.4555 34.2457 16.4461 34.253 16.4365C34.2535 16.4359 34.2541 16.4353 34.2544 16.4347C34.2621 16.4243 34.2692 16.4137 34.2756 16.4027C34.2774 16.3996 34.2787 16.3963 34.2804 16.3932C34.2846 16.3854 34.2887 16.3777 34.2922 16.3697C34.2945 16.3645 34.2961 16.3592 34.2981 16.3539C34.3003 16.3477 34.3027 16.3415 34.3046 16.3352C34.3064 16.3295 34.3074 16.3237 34.3087 16.318C34.3099 16.313 34.3114 16.308 34.3123 16.3029C34.334 16.1758 34.7355 13.8253 34.9148 12.3054C34.915 12.304 34.9151 12.3025 34.9153 12.301C34.9669 11.8629 35 11.494 35 11.2681C35 8.58627 32.0101 6.40439 28.3349 6.40439ZM26.0421 7.15275H28.1396L27.8717 9.39733H25.7742L26.0421 7.15275ZM11.69 18.3568C10.1029 18.3568 8.81176 17.4146 8.81176 16.2565C8.81176 15.0984 10.103 14.1562 11.69 14.1562C13.2771 14.1562 14.5683 15.0984 14.5683 16.2565C14.5683 17.4146 13.2771 18.3568 11.69 18.3568ZM27.6512 18.3568C26.0642 18.3568 24.7731 17.4146 24.7731 16.2565C24.7731 15.0984 26.0642 14.1562 27.6512 14.1562C29.2383 14.1562 30.5295 15.0984 30.5295 16.2565C30.5295 17.4146 29.2383 18.3568 27.6512 18.3568ZM33.3501 15.8822H31.5204C31.2684 14.4877 29.6301 13.4077 27.6513 13.4077C25.6727 13.4077 24.0344 14.4878 23.7825 15.8822H15.5589C15.307 14.4877 13.6687 13.4077 11.69 13.4077C9.71138 13.4077 8.073 14.4878 7.82103 15.8822H6.10219L6.53279 12.6395H24.9171V12.6397C24.9174 12.6397 24.9176 12.6397 24.9178 12.6397C24.935 12.6397 24.952 12.639 24.9688 12.6378C24.972 12.6376 24.9751 12.6371 24.9782 12.6368C24.9916 12.6357 25.0049 12.6343 25.0181 12.6324C25.0237 12.6315 25.0293 12.6304 25.0349 12.6294C25.0451 12.6276 25.0554 12.6258 25.0654 12.6236C25.0722 12.6221 25.0787 12.6203 25.0853 12.6186C25.0939 12.6165 25.1025 12.6143 25.1109 12.6118C25.1181 12.6097 25.125 12.6073 25.1319 12.6049C25.1395 12.6023 25.1471 12.5998 25.1544 12.597C25.1614 12.5943 25.1682 12.5914 25.1751 12.5885C25.1822 12.5855 25.1892 12.5825 25.196 12.5793C25.2026 12.5761 25.2089 12.5729 25.2153 12.5696C25.222 12.5661 25.2286 12.5625 25.2352 12.5587C25.241 12.5553 25.2469 12.5518 25.2526 12.5481C25.2591 12.544 25.2655 12.5398 25.2716 12.5355C25.2768 12.5318 25.282 12.5281 25.2871 12.5243C25.2932 12.5196 25.2992 12.5147 25.305 12.5098C25.3096 12.5059 25.3141 12.502 25.3185 12.498C25.3242 12.4928 25.3296 12.4874 25.3349 12.482C25.3389 12.4779 25.3428 12.4738 25.3467 12.4696C25.3517 12.464 25.3564 12.4582 25.361 12.4523C25.3645 12.4479 25.3681 12.4435 25.3712 12.439C25.3755 12.4331 25.3792 12.4271 25.3831 12.4211C25.3861 12.4163 25.3892 12.4115 25.3919 12.4065C25.3953 12.4007 25.3981 12.3946 25.401 12.3886C25.4035 12.3832 25.4062 12.3779 25.4085 12.3724C25.4107 12.3666 25.4126 12.3607 25.4146 12.3548C25.4166 12.3489 25.4188 12.343 25.4204 12.337C25.4219 12.3311 25.4229 12.3251 25.4241 12.3191C25.4253 12.3129 25.4268 12.3068 25.4276 12.3005C25.4277 12.2996 25.428 12.2988 25.4281 12.2979L25.685 10.1454H28.3348C29.9056 10.1454 30.6141 10.7393 31.3641 11.3682C31.9829 11.887 32.6739 12.4659 33.8483 12.6071C33.6991 13.7579 33.458 15.2353 33.3501 15.8822ZM33.9359 11.8574C33.174 11.744 32.7053 11.3532 32.1374 10.8771C31.4273 10.2817 30.5602 9.55517 28.8982 9.41978L29.1635 7.19755C31.8817 7.49092 33.9746 9.20433 33.9746 11.2682C33.9746 11.4084 33.9603 11.6121 33.9359 11.8574Z" fill="black"/>
</svg>
