<svg width="22" height="26" viewBox="0 0 22 26" fill="none" xmlns="http://www.w3.org/2000/svg">
<path d="M17.874 18.2842C16.6842 18.2842 15.516 18.0692 14.409 17.6465C13.8665 17.4327 13.1996 17.6289 12.8686 18.0218L10.6835 19.9277C8.1494 18.3647 6.58846 16.5617 5.25424 13.6556L6.85521 11.1966C7.27115 10.7167 7.42034 10.0155 7.2416 9.35769C6.87419 8.07181 6.68755 6.72261 6.68755 5.34727C6.6876 4.35372 5.98805 3.54541 5.12822 3.54541H1.55937C0.699549 3.54541 0 4.35372 0 5.34721C0 16.7353 8.01817 26 17.874 26C18.7338 26 19.4334 25.1917 19.4334 24.1982V20.086C19.4333 19.0926 18.7338 18.2842 17.874 18.2842Z" fill="black"/>
</svg>
