<svg width="27" height="10" viewBox="0 0 27 10" fill="none" xmlns="http://www.w3.org/2000/svg">
<path d="M26.9595 0.261711C26.8743 0.103429 26.6672 6.86646e-05 26.4376 6.86646e-05H24.1876C24.0437 6.86646e-05 23.9052 0.0407715 23.8009 0.114405L13.5 7.34266L3.19915 0.114405C3.09479 0.0407715 2.95636 6.86646e-05 2.81245 6.86646e-05H0.562417C0.33281 6.86646e-05 0.12572 0.103429 0.0405539 0.261711C-0.04514 0.419603 0.00759471 0.600268 0.173498 0.717847L13.1111 9.88459C13.3286 10.0384 13.6714 10.0384 13.8889 9.88459L26.8265 0.717847C26.9924 0.600268 27.0452 0.419603 26.9595 0.261711Z" fill="#D1B2B2"/>
</svg>
