<svg width="12" height="13" viewBox="0 0 12 13" fill="none" xmlns="http://www.w3.org/2000/svg">
<path d="M11.1051 0.897461H0.905917C0.626452 0.897461 0.406451 1.13586 0.428973 1.41451L1.28165 11.9581C1.32917 12.5467 1.82012 13 2.40995 13H9.60091C10.1907 13 10.6817 12.5467 10.7292 11.9579L11.5819 1.41451C11.6045 1.13586 11.3845 0.897461 11.1051 0.897461ZM3.37551 11.8754C3.36411 11.8761 3.35271 11.8765 3.34145 11.8765C3.05663 11.8765 2.81754 11.6547 2.79982 11.3666L2.26548 2.71089C2.24707 2.41138 2.4749 2.15361 2.77428 2.13521C3.0727 2.11708 3.33156 2.34436 3.34996 2.64401L3.88417 11.2997C3.90271 11.5992 3.67488 11.8569 3.37551 11.8754ZM6.55481 11.3332C6.55481 11.6332 6.3116 11.8764 6.01154 11.8764C5.71147 11.8764 5.46827 11.6332 5.46827 11.3332V2.67738C5.46827 2.37732 5.71147 2.13411 6.01154 2.13411C6.31147 2.13411 6.55481 2.37732 6.55481 2.67738V11.3332ZM9.74552 2.70938L9.23534 11.3651C9.21845 11.6538 8.97895 11.8764 8.69358 11.8764C8.68287 11.8764 8.67202 11.8761 8.66117 11.8755C8.36165 11.8578 8.13314 11.6008 8.15085 11.3012L8.66089 2.64539C8.67847 2.34587 8.93473 2.11736 9.23507 2.13507C9.53458 2.15265 9.7631 2.40987 9.74552 2.70938Z" fill="black"/>
</svg>
