<svg width="328" height="37" viewBox="0 0 328 37" fill="none" xmlns="http://www.w3.org/2000/svg">
<rect x="0.5" y="0.5" width="327" height="36" rx="4.5" fill="white" stroke="#B1AEAE"/>
<path d="M30.8047 14.4863H31.0771C32.0439 14.4922 32.9258 14.7178 33.7227 15.1631C34.5195 15.6084 35.1377 16.2236 35.5771 17.0088C36.0225 17.7881 36.2451 18.6611 36.2451 19.6279C36.2451 20.6006 36.0225 21.4824 35.5771 22.2734C35.1318 23.0645 34.5166 23.6826 33.7314 24.1279C32.9463 24.5674 32.0732 24.793 31.1123 24.8047H30.8047V26.5273H29.1699V24.8047H28.9238C27.9453 24.8047 27.0547 24.582 26.252 24.1367C25.4551 23.6914 24.834 23.0762 24.3887 22.291C23.9492 21.5059 23.7295 20.624 23.7295 19.6455C23.7295 18.667 23.9492 17.7852 24.3887 17C24.834 16.2148 25.4551 15.5996 26.252 15.1543C27.0547 14.709 27.9453 14.4863 28.9238 14.4863H29.1699V12.6758H30.8047V14.4863ZM28.9238 15.8135C27.8223 15.8135 26.9492 16.1533 26.3047 16.833C25.666 17.5068 25.3467 18.4443 25.3467 19.6455C25.3467 20.8525 25.666 21.793 26.3047 22.4668C26.9434 23.1348 27.8223 23.4688 28.9414 23.4688H29.1699V15.8135H28.9238ZM30.8047 15.8135V23.4688H31.0508C32.1699 23.4688 33.043 23.126 33.6699 22.4404C34.3027 21.749 34.6191 20.8115 34.6191 19.6279C34.6191 18.4561 34.3027 17.5273 33.6699 16.8418C33.043 16.1562 32.1582 15.8135 31.0156 15.8135H30.8047ZM43.9883 26C43.8945 25.8125 43.8184 25.4785 43.7598 24.998C43.0039 25.7832 42.1016 26.1758 41.0527 26.1758C40.1152 26.1758 39.3447 25.9121 38.7412 25.3848C38.1436 24.8516 37.8447 24.1777 37.8447 23.3633C37.8447 22.373 38.2197 21.6055 38.9697 21.0605C39.7256 20.5098 40.7861 20.2344 42.1514 20.2344H43.7334V19.4873C43.7334 18.9189 43.5635 18.4678 43.2236 18.1338C42.8838 17.7939 42.3828 17.624 41.7207 17.624C41.1406 17.624 40.6543 17.7705 40.2617 18.0635C39.8691 18.3564 39.6729 18.7109 39.6729 19.127H38.0381C38.0381 18.6523 38.2051 18.1953 38.5391 17.7559C38.8789 17.3105 39.3359 16.959 39.9102 16.7012C40.4902 16.4434 41.126 16.3145 41.8174 16.3145C42.9131 16.3145 43.7715 16.5898 44.3926 17.1406C45.0137 17.6855 45.3359 18.4385 45.3594 19.3994V23.7764C45.3594 24.6494 45.4707 25.3438 45.6934 25.8594V26H43.9883ZM41.29 24.7607C41.7998 24.7607 42.2832 24.6289 42.7402 24.3652C43.1973 24.1016 43.5283 23.7588 43.7334 23.3369V21.3857H42.459C40.4668 21.3857 39.4707 21.9688 39.4707 23.1348C39.4707 23.6445 39.6406 24.043 39.9805 24.3301C40.3203 24.6172 40.7568 24.7607 41.29 24.7607ZM53.3838 23.8467L56.6182 16.4902H58.6484V26H57.0225V19.083L53.9463 26H52.8213L49.6836 18.9336V26H48.0576V16.4902H50.167L53.3838 23.8467ZM67.4199 16.4902H69.0459V26H67.4199V19.0654L63.0342 26H61.4082V16.4902H63.0342V23.4336L67.4199 16.4902ZM79.4521 16.4902V26H77.8174V17.835H74.583L74.3896 21.3945C74.2842 23.0293 74.0088 24.1982 73.5635 24.9014C73.124 25.6045 72.4238 25.9707 71.4629 26H70.8125V24.5674L71.2783 24.5322C71.8057 24.4736 72.1836 24.1689 72.4121 23.6182C72.6406 23.0674 72.7871 22.0479 72.8516 20.5596L73.0273 16.4902H79.4521ZM88.2148 16.4902H89.8408V26H88.2148V19.0654L83.8291 26H82.2031V16.4902H83.8291V23.4336L88.2148 16.4902ZM99.7197 16.4902V26H98.085V22.2998H95.6328L93.3916 26H91.6338L94.0244 22.0537C93.415 21.8311 92.9463 21.4883 92.6182 21.0254C92.2959 20.5566 92.1348 20.0117 92.1348 19.3906C92.1348 18.5234 92.46 17.8262 93.1104 17.2988C93.7607 16.7656 94.6309 16.4961 95.7207 16.4902H99.7197ZM93.7695 19.4082C93.7695 19.8711 93.9277 20.2461 94.2441 20.5332C94.5605 20.8145 94.9795 20.958 95.501 20.9639H98.085V17.8086H95.7471C95.1436 17.8086 94.6631 17.958 94.3057 18.2568C93.9482 18.5498 93.7695 18.9336 93.7695 19.4082ZM115.118 13.2031H116.806V26H115.118V16.1387L108.816 26H107.12V13.2031H108.816V23.0645L115.118 13.2031ZM125.103 23.8467L128.337 16.4902H130.367V26H128.741V19.083L125.665 26H124.54L121.402 18.9336V26H119.776V16.4902H121.886L125.103 23.8467ZM140.255 16.4902V26H138.62V22.2998H136.168L133.927 26H132.169L134.56 22.0537C133.95 21.8311 133.481 21.4883 133.153 21.0254C132.831 20.5566 132.67 20.0117 132.67 19.3906C132.67 18.5234 132.995 17.8262 133.646 17.2988C134.296 16.7656 135.166 16.4961 136.256 16.4902H140.255ZM134.305 19.4082C134.305 19.8711 134.463 20.2461 134.779 20.5332C135.096 20.8145 135.515 20.958 136.036 20.9639H138.62V17.8086H136.282C135.679 17.8086 135.198 17.958 134.841 18.2568C134.483 18.5498 134.305 18.9336 134.305 19.4082Z" fill="#CBB5B5"/>
</svg>
