<svg width="328" height="37" viewBox="0 0 328 37" fill="none" xmlns="http://www.w3.org/2000/svg">
<rect x="0.5" y="0.5" width="327" height="36" rx="4.5" fill="white" stroke="#B1AEAE"/>
<path d="M31.7188 18.085H26.1729V22.6201H32.6152V24H24.4854V11.2031H32.5273V12.5918H26.1729V16.7051H31.7188V18.085ZM37.8447 19.2275H33.5557V17.9004H37.8447V19.2275ZM40.9648 14.4902L41.0088 15.5449C41.7061 14.7246 42.6465 14.3145 43.8301 14.3145C45.1602 14.3145 46.0654 14.8242 46.5459 15.8438C46.8623 15.3867 47.2725 15.0176 47.7764 14.7363C48.2861 14.4551 48.8867 14.3145 49.5781 14.3145C51.6641 14.3145 52.7246 15.4189 52.7598 17.6279V24H51.1338V17.7246C51.1338 17.0449 50.9785 16.5381 50.668 16.2041C50.3574 15.8643 49.8359 15.6943 49.1035 15.6943C48.5 15.6943 47.999 15.876 47.6006 16.2393C47.2021 16.5967 46.9707 17.0801 46.9062 17.6895V24H45.2715V17.7686C45.2715 16.3857 44.5947 15.6943 43.2412 15.6943C42.1748 15.6943 41.4453 16.1484 41.0527 17.0566V24H39.4268V14.4902H40.9648ZM61.0918 24C60.998 23.8125 60.9219 23.4785 60.8633 22.998C60.1074 23.7832 59.2051 24.1758 58.1562 24.1758C57.2188 24.1758 56.4482 23.9121 55.8447 23.3848C55.2471 22.8516 54.9482 22.1777 54.9482 21.3633C54.9482 20.373 55.3232 19.6055 56.0732 19.0605C56.8291 18.5098 57.8896 18.2344 59.2549 18.2344H60.8369V17.4873C60.8369 16.9189 60.667 16.4678 60.3271 16.1338C59.9873 15.7939 59.4863 15.624 58.8242 15.624C58.2441 15.624 57.7578 15.7705 57.3652 16.0635C56.9727 16.3564 56.7764 16.7109 56.7764 17.127H55.1416C55.1416 16.6523 55.3086 16.1953 55.6426 15.7559C55.9824 15.3105 56.4395 14.959 57.0137 14.7012C57.5938 14.4434 58.2295 14.3145 58.9209 14.3145C60.0166 14.3145 60.875 14.5898 61.4961 15.1406C62.1172 15.6855 62.4395 16.4385 62.4629 17.3994V21.7764C62.4629 22.6494 62.5742 23.3438 62.7969 23.8594V24H61.0918ZM58.3936 22.7607C58.9033 22.7607 59.3867 22.6289 59.8438 22.3652C60.3008 22.1016 60.6318 21.7588 60.8369 21.3369V19.3857H59.5625C57.5703 19.3857 56.5742 19.9688 56.5742 21.1348C56.5742 21.6445 56.7441 22.043 57.084 22.3301C57.4238 22.6172 57.8604 22.7607 58.3936 22.7607ZM66.7783 24H65.1523V14.4902H66.7783V24ZM65.0205 11.9678C65.0205 11.7041 65.0996 11.4814 65.2578 11.2998C65.4219 11.1182 65.6621 11.0273 65.9785 11.0273C66.2949 11.0273 66.5352 11.1182 66.6992 11.2998C66.8633 11.4814 66.9453 11.7041 66.9453 11.9678C66.9453 12.2314 66.8633 12.4512 66.6992 12.627C66.5352 12.8027 66.2949 12.8906 65.9785 12.8906C65.6621 12.8906 65.4219 12.8027 65.2578 12.627C65.0996 12.4512 65.0205 12.2314 65.0205 11.9678ZM71.1553 24H69.5293V10.5H71.1553V24Z" fill="#CBB5B5"/>
</svg>
