<svg width="328" height="37" viewBox="0 0 328 37" fill="none" xmlns="http://www.w3.org/2000/svg">
<rect x="0.5" y="0.5" width="327" height="36" rx="4.5" fill="white" stroke="#B1AEAE"/>
<path d="M34.2588 25H32.5625V13.5918H26.252V25H24.5645V12.2031H34.2588V25ZM42.9512 25C42.8574 24.8125 42.7812 24.4785 42.7227 23.998C41.9668 24.7832 41.0645 25.1758 40.0156 25.1758C39.0781 25.1758 38.3076 24.9121 37.7041 24.3848C37.1064 23.8516 36.8076 23.1777 36.8076 22.3633C36.8076 21.373 37.1826 20.6055 37.9326 20.0605C38.6885 19.5098 39.749 19.2344 41.1143 19.2344H42.6963V18.4873C42.6963 17.9189 42.5264 17.4678 42.1865 17.1338C41.8467 16.7939 41.3457 16.624 40.6836 16.624C40.1035 16.624 39.6172 16.7705 39.2246 17.0635C38.832 17.3564 38.6357 17.7109 38.6357 18.127H37.001C37.001 17.6523 37.168 17.1953 37.502 16.7559C37.8418 16.3105 38.2988 15.959 38.873 15.7012C39.4531 15.4434 40.0889 15.3145 40.7803 15.3145C41.876 15.3145 42.7344 15.5898 43.3555 16.1406C43.9766 16.6855 44.2988 17.4385 44.3223 18.3994V22.7764C44.3223 23.6494 44.4336 24.3438 44.6562 24.8594V25H42.9512ZM40.2529 23.7607C40.7627 23.7607 41.2461 23.6289 41.7031 23.3652C42.1602 23.1016 42.4912 22.7588 42.6963 22.3369V20.3857H41.4219C39.4297 20.3857 38.4336 20.9688 38.4336 22.1348C38.4336 22.6445 38.6035 23.043 38.9434 23.3301C39.2832 23.6172 39.7197 23.7607 40.2529 23.7607ZM54.9043 20.3506C54.9043 21.7979 54.5732 22.9639 53.9111 23.8486C53.249 24.7334 52.3525 25.1758 51.2217 25.1758C50.0674 25.1758 49.1592 24.8096 48.4971 24.0771V28.6562H46.8711V15.4902H48.3564L48.4355 16.5449C49.0977 15.7246 50.0176 15.3145 51.1953 15.3145C52.3379 15.3145 53.2402 15.7451 53.9023 16.6064C54.5703 17.4678 54.9043 18.666 54.9043 20.2012V20.3506ZM53.2783 20.166C53.2783 19.0938 53.0498 18.2471 52.5928 17.626C52.1357 17.0049 51.5088 16.6943 50.7119 16.6943C49.7275 16.6943 48.9893 17.1309 48.4971 18.0039V22.5479C48.9834 23.415 49.7275 23.8486 50.7295 23.8486C51.5088 23.8486 52.127 23.541 52.584 22.9258C53.0469 22.3047 53.2783 21.3848 53.2783 20.166ZM56.5479 20.1572C56.5479 19.2256 56.7295 18.3877 57.0928 17.6436C57.4619 16.8994 57.9717 16.3252 58.6221 15.9209C59.2783 15.5166 60.0254 15.3145 60.8633 15.3145C62.1582 15.3145 63.2041 15.7627 64.001 16.6592C64.8037 17.5557 65.2051 18.748 65.2051 20.2363V20.3506C65.2051 21.2764 65.0264 22.1084 64.6689 22.8467C64.3174 23.5791 63.8105 24.1504 63.1484 24.5605C62.4922 24.9707 61.7363 25.1758 60.8809 25.1758C59.5918 25.1758 58.5459 24.7275 57.7432 23.8311C56.9463 22.9346 56.5479 21.748 56.5479 20.2715V20.1572ZM58.1826 20.3506C58.1826 21.4053 58.4258 22.252 58.9121 22.8906C59.4043 23.5293 60.0605 23.8486 60.8809 23.8486C61.707 23.8486 62.3633 23.5264 62.8496 22.8818C63.3359 22.2314 63.5791 21.3232 63.5791 20.1572C63.5791 19.1143 63.3301 18.2705 62.832 17.626C62.3398 16.9756 61.6836 16.6504 60.8633 16.6504C60.0605 16.6504 59.4131 16.9697 58.9209 17.6084C58.4287 18.2471 58.1826 19.1611 58.1826 20.3506ZM74.8994 15.4902V25H73.2646V16.835H70.0303L69.8369 20.3945C69.7314 22.0293 69.4561 23.1982 69.0107 23.9014C68.5713 24.6045 67.8711 24.9707 66.9102 25H66.2598V23.5674L66.7256 23.5322C67.2529 23.4736 67.6309 23.1689 67.8594 22.6182C68.0879 22.0674 68.2344 21.0479 68.2988 19.5596L68.4746 15.4902H74.8994ZM79.2852 18.7686H81.7549C82.833 18.7803 83.6855 19.0615 84.3125 19.6123C84.9395 20.1631 85.2529 20.9102 85.2529 21.8535C85.2529 22.8027 84.9307 23.5645 84.2861 24.1387C83.6416 24.7129 82.7744 25 81.6846 25H77.6592V15.4902H79.2852V18.7686ZM79.2852 20.0957V23.6729H81.7021C82.3115 23.6729 82.7832 23.5176 83.1172 23.207C83.4512 22.8906 83.6182 22.46 83.6182 21.915C83.6182 21.3877 83.4541 20.957 83.126 20.623C82.8037 20.2832 82.3496 20.1074 81.7637 20.0957H79.2852Z" fill="#CBB5B5"/>
</svg>
