<svg width="33" height="27" viewBox="0 0 33 27" fill="none" xmlns="http://www.w3.org/2000/svg">
<g clip-path="url(#clip0)">
<path d="M31.9632 9.99929C30.7409 9.16007 28.9118 9.29138 27.888 10.2896L25.1361 12.9539V5.22814C25.1361 4.58062 24.807 3.95355 24.2333 3.50768L20.5609 0.653435C20.0195 0.232668 19.3102 0.000900269 18.5635 0.000900269H2.90033C1.30112 0.000900269 0 1.06545 0 2.37389V24.6273C0 25.9358 1.30112 27.0003 2.90033 27.0003H22.2359C23.8351 27.0003 25.1362 25.9358 25.1362 24.6273V20.3052C25.255 20.19 32.2985 13.3639 32.3207 13.3424C33.3511 12.3377 33.1914 10.8424 31.9632 9.99929ZM19.3355 1.88299C23.2036 4.88927 22.9289 4.66953 23.0014 4.74694H19.3355V1.88299ZM23.2026 24.6273C23.2026 25.0635 22.7689 25.4183 22.2358 25.4183H2.90033C2.36723 25.4183 1.93353 25.0635 1.93353 24.6273V2.37389C1.93353 1.93773 2.36723 1.58288 2.90033 1.58288H17.402V5.53785C17.402 5.9747 17.8348 6.32887 18.3688 6.32887H23.2026V14.8259C22.7873 15.228 19.4529 18.4563 19.0924 18.8052C18.8045 19.086 18.5973 19.4228 18.4933 19.7792L17.5948 22.8566C17.5098 23.148 17.6332 23.4538 17.9137 23.6464C18.1945 23.8392 18.584 23.8852 18.9196 23.7662L22.4678 22.5078C22.7342 22.4133 22.9826 22.285 23.2026 22.1307V24.6273ZM20.9031 19.5032L22.3841 20.52L22.0548 20.8391C21.9589 20.9327 21.8358 21.0078 21.6988 21.0564L19.9248 21.6855L20.3741 20.1469C20.4088 20.028 20.4778 19.9158 20.5716 19.8243L20.9031 19.5032ZM23.6313 19.3111L22.1511 18.2949C22.3012 18.1495 27.1589 13.4463 27.4949 13.1211L28.9721 14.1352L23.6313 19.3111ZM30.8414 12.3237L30.2195 12.9265L28.743 11.9128L29.367 11.3086C29.7079 10.9762 30.3151 10.9329 30.7204 11.2111C31.1336 11.4948 31.1792 11.9943 30.8414 12.3237Z" fill="black"/>
<path d="M14.5016 4.74625H4.83385C4.29992 4.74625 3.86706 5.10041 3.86706 5.53726C3.86706 5.97411 4.29992 6.32828 4.83385 6.32828H14.5016C15.0356 6.32828 15.4684 5.97411 15.4684 5.53726C15.4684 5.10041 15.0356 4.74625 14.5016 4.74625Z" fill="black"/>
<path d="M20.3023 9.54497H4.83385C4.29992 9.54497 3.86706 9.89913 3.86706 10.336C3.86706 10.7728 4.29992 11.127 4.83385 11.127H20.3023C20.8362 11.127 21.2691 10.7728 21.2691 10.336C21.2691 9.89913 20.8362 9.54497 20.3023 9.54497Z" fill="black"/>
<path d="M20.3023 14.291H4.83385C4.29992 14.291 3.86706 14.6452 3.86706 15.082C3.86706 15.5189 4.29992 15.873 4.83385 15.873H20.3023C20.8362 15.873 21.2691 15.5189 21.2691 15.082C21.2691 14.6451 20.8362 14.291 20.3023 14.291Z" fill="black"/>
<path d="M14.5016 19.037H4.83385C4.29992 19.037 3.86706 19.3912 3.86706 19.828C3.86706 20.2649 4.29992 20.619 4.83385 20.619H14.5016C15.0356 20.619 15.4684 20.2649 15.4684 19.828C15.4684 19.3912 15.0356 19.037 14.5016 19.037Z" fill="black"/>
</g>
<defs>
<clipPath id="clip0">
<rect width="33" height="27" fill="white"/>
</clipPath>
</defs>
</svg>
